<svg width="14" height="14" viewBox="0 0 14 14" fill="none" xmlns="http://www.w3.org/2000/svg">
<path fill-rule="evenodd" clip-rule="evenodd" d="M6.33366 1.33329C3.57223 1.33329 1.33366 3.57187 1.33366 6.33329C1.33366 9.09472 3.57223 11.3333 6.33366 11.3333C9.09508 11.3333 11.3337 9.09472 11.3337 6.33329C11.3337 3.57187 9.09508 1.33329 6.33366 1.33329ZM0.666992 6.33329C0.666992 3.20368 3.20404 0.666626 6.33366 0.666626C9.46327 0.666626 12.0003 3.20368 12.0003 6.33329C12.0003 9.46291 9.46327 12 6.33366 12C3.20404 12 0.666992 9.46291 0.666992 6.33329Z" fill="#333333" fill-opacity="0.5"/>
<path fill-rule="evenodd" clip-rule="evenodd" d="M9.86462 9.86426C9.9948 9.73408 10.2059 9.73408 10.336 9.86426L13.236 12.7643C13.3662 12.8944 13.3662 13.1055 13.236 13.2357C13.1059 13.3658 12.8948 13.3658 12.7646 13.2357L9.86462 10.3357C9.73445 10.2055 9.73445 9.99443 9.86462 9.86426Z" fill="#333333" fill-opacity="0.5"/>
</svg>
