<svg width="13" height="24" viewBox="0 0 13 24" fill="none" xmlns="http://www.w3.org/2000/svg">
<path d="M3.63074 24V13.6H-0.00012207V8.8H3.63074V5.45C3.63074 4.53333 3.76615 3.73333 4.03699 3.05C4.32475 2.36667 4.71407 1.8 5.20496 1.35C5.71277 0.9 6.31368 0.566667 7.00769 0.35C7.7017 0.116667 8.46342 0 9.29285 0C10.0715 0 10.774 0.025 11.4003 0.075C12.0266 0.108333 12.4328 0.141667 12.619 0.175V3.975H10.3339C9.43673 3.975 8.84428 4.16667 8.55652 4.55C8.26876 4.93333 8.12488 5.43333 8.12488 6.05V8.8H12.9999L11.3749 13.6H8.12488V24H3.63074Z" fill="#4064AC"/>
</svg>
