<svg width="24" height="24" viewBox="0 0 24 24" fill="none" xmlns="http://www.w3.org/2000/svg">
<g clip-path="url(#clip0)">
<path d="M1.57002 1.67138C-0.315977 3.63038 0.0700235 5.71138 0.0700235 12.0334C0.0700235 17.2834 -0.845977 22.5464 3.94802 23.7854C5.44502 24.1704 18.709 24.1704 20.204 23.7834C22.2 23.2684 23.824 21.6494 24.046 18.8264C24.077 18.4324 24.077 5.64138 24.045 5.23938C23.809 2.23238 21.958 0.499376 19.519 0.148376C18.96 0.0673765 18.848 0.0433765 15.98 0.0383765C5.80702 0.0433765 3.57702 -0.409624 1.57002 1.67138Z" fill="url(#paint0_linear)"/>
<path d="M11.9983 3.14039C8.3673 3.14039 4.9193 2.81739 3.6023 6.19739C3.0583 7.59339 3.1373 9.40639 3.1373 12.0024C3.1373 14.2804 3.0643 16.4214 3.6023 17.8064C4.9163 21.1884 8.3923 20.8644 11.9963 20.8644C15.4733 20.8644 19.0583 21.2264 20.3913 17.8064C20.9363 16.3964 20.8563 14.6104 20.8563 12.0024C20.8563 8.54039 21.0473 6.30539 19.3683 4.62739C17.6683 2.92739 15.3693 3.14039 11.9943 3.14039H11.9983ZM11.2043 4.73739C18.7783 4.72539 19.7423 3.88339 19.2103 15.5804C19.0213 19.7174 15.8713 19.2634 11.9993 19.2634C4.9393 19.2634 4.7363 19.0614 4.7363 11.9984C4.7363 4.85339 5.2963 4.74139 11.2043 4.73539V4.73739ZM16.7283 6.20839C16.1413 6.20839 15.6653 6.68439 15.6653 7.27139C15.6653 7.85839 16.1413 8.33439 16.7283 8.33439C17.3153 8.33439 17.7913 7.85839 17.7913 7.27139C17.7913 6.68439 17.3153 6.20839 16.7283 6.20839ZM11.9983 7.45139C9.4853 7.45139 7.4483 9.48939 7.4483 12.0024C7.4483 14.5154 9.4853 16.5524 11.9983 16.5524C14.5113 16.5524 16.5473 14.5154 16.5473 12.0024C16.5473 9.48939 14.5113 7.45139 11.9983 7.45139ZM11.9983 9.04839C15.9033 9.04839 15.9083 14.9564 11.9983 14.9564C8.0943 14.9564 8.0883 9.04839 11.9983 9.04839Z" fill="white"/>
</g>
<defs>
<linearGradient id="paint0_linear" x1="1.61604" y1="22.5055" x2="23.9215" y2="3.20035" gradientUnits="userSpaceOnUse">
<stop stop-color="#FFDD55"/>
<stop offset="0.5" stop-color="#FF543E"/>
<stop offset="1" stop-color="#C837AB"/>
</linearGradient>
<clipPath id="clip0">
<rect width="24" height="24" fill="white"/>
</clipPath>
</defs>
</svg>
