<svg width="18" height="16" viewBox="0 0 18 16" fill="none" xmlns="http://www.w3.org/2000/svg">
<path d="M17.9931 5.2697L11.2867 0.701884C9.91267 -0.233994 8.08654 -0.233959 6.71254 0.701975L0.0069105 5.2697H17.9931Z" fill="#35BDFE"/>
<path d="M17.9931 14.4284V6.12993C17.9931 6.03792 18.0087 5.35741 17.9931 5.2697L9.48084 11.0323C9.47493 11.0359 9.46875 11.0388 9.46258 11.0418C9.45789 11.044 9.4532 11.0463 9.44862 11.0488C9.43741 11.0548 9.426 11.0607 9.41459 11.0663C9.35435 11.0965 9.2928 11.1209 9.22976 11.1368C9.22618 11.1378 9.2226 11.1384 9.21902 11.139C9.2161 11.1396 9.21317 11.1401 9.21024 11.1408C9.14099 11.157 9.07084 11.1667 9.00079 11.1667H8.99929C8.92924 11.1667 8.85909 11.1567 8.78983 11.1408L8.78477 11.1398C8.77995 11.1389 8.77513 11.1381 8.77032 11.1368C8.70717 11.1209 8.64543 11.0965 8.58549 11.0663C8.57408 11.0607 8.56267 11.0548 8.55146 11.0488C8.54692 11.0463 8.54232 11.0441 8.53772 11.0419C8.53147 11.0389 8.52524 11.0359 8.51924 11.0323L0.0069105 5.2697C-0.00870073 5.35741 0.00701825 6.03811 0.00701825 6.12993V14.4284C0.00701825 15.2964 0.726944 16 1.61539 16H16.3838C17.2721 16 17.9931 15.2965 17.9931 14.4284Z" fill="#35BDFE"/>
</svg>
