<svg width="24" height="17" viewBox="0 0 24 17" fill="none" xmlns="http://www.w3.org/2000/svg">
<path d="M23.7656 3.65972C23.7656 3.65972 23.6953 3.35278 23.5547 2.73889C23.4141 2.125 23.1641 1.63704 22.8047 1.275C22.3516 0.787037 21.8906 0.503704 21.4219 0.425C20.9688 0.330556 20.625 0.267593 20.3906 0.236111C19.5625 0.173148 18.6562 0.125926 17.6719 0.0944444C16.6875 0.062963 15.7734 0.0393519 14.9297 0.0236111C14.1016 0.00787037 13.4062 0 12.8438 0C12.2812 0 12 0 12 0C12 0 11.7188 0 11.1562 0C10.5938 0 9.89062 0.00787037 9.04688 0.0236111C8.21875 0.0393519 7.3125 0.062963 6.32812 0.0944444C5.34375 0.125926 4.4375 0.173148 3.60938 0.236111C3.375 0.267593 3.02344 0.330556 2.55469 0.425C2.10156 0.503704 1.64844 0.787037 1.19531 1.275C0.835938 1.63704 0.585938 2.125 0.445312 2.73889C0.304688 3.35278 0.234375 3.65972 0.234375 3.65972C0.234375 3.65972 0.195312 4.06898 0.117188 4.8875C0.0390625 5.70602 0 6.60324 0 7.57917V9.42083C0 10.3968 0.0390625 11.294 0.117188 12.1125C0.195312 12.9153 0.234375 13.3167 0.234375 13.3167C0.234375 13.3167 0.304688 13.6315 0.445312 14.2611C0.585938 14.875 0.835938 15.363 1.19531 15.725C1.64844 16.213 2.13281 16.4963 2.64844 16.575C3.17969 16.6537 3.57812 16.7167 3.84375 16.7639C4.32812 16.8111 5.02344 16.8505 5.92969 16.8819C6.83594 16.9134 7.73438 16.937 8.625 16.9528C9.53125 16.9685 10.3203 16.9843 10.9922 17C11.6641 17 12 17 12 17C12 17 12.2812 17 12.8438 17C13.4062 17 14.1016 16.9921 14.9297 16.9764C15.7734 16.9606 16.6875 16.937 17.6719 16.9056C18.6562 16.8583 19.5625 16.8032 20.3906 16.7403C20.625 16.7245 20.9688 16.6773 21.4219 16.5986C21.8906 16.5042 22.3516 16.213 22.8047 15.725C23.1641 15.363 23.4141 14.875 23.5547 14.2611C23.6953 13.6315 23.7656 13.3167 23.7656 13.3167C23.7656 13.3167 23.8047 12.9153 23.8828 12.1125C23.9609 11.294 24 10.3968 24 9.42083V7.57917C24 6.60324 23.9609 5.70602 23.8828 4.8875C23.8047 4.06898 23.7656 3.65972 23.7656 3.65972ZM9.51562 11.6403V4.84028L16.0078 8.24028L9.51562 11.6403Z" fill="#E43122"/>
</svg>
